{
  "accessors": [
    {
      "bufferView": 2,
      "componentType": 5126,
      "count": 46225,
      "max": [
        50.394248962402344,
        7.1631617546081543,
        109.32068634033203
      ],
      "min": [
        -45.689456939697266,
        -56.819526672363281,
        0.14434128999710083
      ],
      "type": "VEC3"
    },
    {
      "bufferView": 2,
      "byteOffset": 554700,
      "componentType": 5126,
      "count": 46225,
      "max": [
        0.99998015165328979,
        0.99996107816696167,
        1
      ],
      "min": [
        -0.9999849796295166,
        -1,
        -1
      ],
      "type": "VEC3"
    },
    {
      "bufferView": 1,
      "componentType": 5126,
      "count": 46225,
      "max": [
        747.8277587890625,
        747.8277587890625
      ],
      "min": [
        -747.82781982421875,
        -747.82781982421875
      ],
      "type": "VEC2"
    },
    {
      "bufferView": 0,
      "componentType": 5125,
      "count": 274776,
      "max": [
        46224
      ],
      "min": [
        0
      ],
      "type": "SCALAR"
    },
    {
      "bufferView": 2,
      "byteOffset": 1109400,
      "componentType": 5126,
      "count": 24,
      "max": [
        6.3633179664611816,
        6.3633179664611816,
        12.726635932922363
      ],
      "min": [
        -6.3633179664611816,
        -6.3633179664611816,
        0
      ],
      "type": "VEC3"
    },
    {
      "bufferView": 2,
      "byteOffset": 1109688,
      "componentType": 5126,
      "count": 24,
      "max": [
        1,
        1,
        1
      ],
      "min": [
        -1,
        -1,
        -1
      ],
      "type": "VEC3"
    },
    {
      "bufferView": 1,
      "byteOffset": 369800,
      "componentType": 5126,
      "count": 24,
      "max": [
        1,
        1
      ],
      "min": [
        0,
        0
      ],
      "type": "VEC2"
    },
    {
      "bufferView": 0,
      "byteOffset": 1099104,
      "componentType": 5125,
      "count": 36,
      "max": [
        23
      ],
      "min": [
        0
      ],
      "type": "SCALAR"
    },
    {
      "bufferView": 2,
      "byteOffset": 1109976,
      "componentType": 5126,
      "count": 673,
      "max": [
        6.949791431427002,
        6.9497919082641602,
        13.89958381652832
      ],
      "min": [
        -6.949791431427002,
        -6.9497919082641602,
        0
      ],
      "type": "VEC3"
    },
    {
      "bufferView": 2,
      "byteOffset": 1118052,
      "componentType": 5126,
      "count": 673,
      "max": [
        0.9999997615814209,
        1,
        1
      ],
      "min": [
        -0.99999982118606567,
        -1,
        -1
      ],
      "type": "VEC3"
    },
    {
      "bufferView": 1,
      "byteOffset": 369992,
      "componentType": 5126,
      "count": 673,
      "max": [
        0.98766416311264038,
        1
      ],
      "min": [
        -0.19999998807907104,
        0
      ],
      "type": "VEC2"
    },
    {
      "bufferView": 0,
      "byteOffset": 1099248,
      "componentType": 5125,
      "count": 3840,
      "max": [
        672
      ],
      "min": [
        0
      ],
      "type": "SCALAR"
    },
    {
      "bufferView": 2,
      "byteOffset": 1126128,
      "componentType": 5126,
      "count": 195,
      "max": [
        5.8722896575927734,
        5.8722896575927734,
        14.142145156860352
      ],
      "min": [
        -5.8722896575927734,
        -5.8722896575927734,
        0
      ],
      "type": "VEC3"
    },
    {
      "bufferView": 2,
      "byteOffset": 1128468,
      "componentType": 5126,
      "count": 195,
      "max": [
        0.92354625463485718,
        0.92354625463485718,
        0.38348725438117981
      ],
      "min": [
        -0.9235461950302124,
        -0.9235461950302124,
        -1
      ],
      "type": "VEC3"
    },
    {
      "bufferView": 1,
      "byteOffset": 375376,
      "componentType": 5126,
      "count": 195,
      "max": [
        0.98437505960464478,
        1
      ],
      "min": [
        -0.015624940395355225,
        0
      ],
      "type": "VEC2"
    },
    {
      "bufferView": 0,
      "byteOffset": 1114608,
      "componentType": 5125,
      "count": 384,
      "max": [
        194
      ],
      "min": [
        0
      ],
      "type": "SCALAR"
    },
    {
      "bufferView": 2,
      "byteOffset": 1130808,
      "componentType": 5126,
      "count": 262,
      "max": [
        6.267827033996582,
        6.267827033996582,
        16.339908599853516
      ],
      "min": [
        -6.267827033996582,
        -6.267827033996582,
        0
      ],
      "type": "VEC3"
    },
    {
      "bufferView": 2,
      "byteOffset": 1133952,
      "componentType": 5126,
      "count": 262,
      "max": [
        1,
        1,
        1
      ],
      "min": [
        -1,
        -1,
        -1
      ],
      "type": "VEC3"
    },
    {
      "bufferView": 1,
      "byteOffset": 376936,
      "componentType": 5126,
      "count": 262,
      "max": [
        0.98437505960464478,
        1
      ],
      "min": [
        -0.015624940395355225,
        0
      ],
      "type": "VEC2"
    },
    {
      "bufferView": 0,
      "byteOffset": 1116144,
      "componentType": 5125,
      "count": 768,
      "max": [
        261
      ],
      "min": [
        0
      ],
      "type": "SCALAR"
    }
  ],
  "asset": {
    "extras": {
      "author": "Andrey Martyanov (https://sketchfab.com/3dartel)",
      "license": "CC-BY-4.0 (http://creativecommons.org/licenses/by/4.0/)",
      "source": "https://sketchfab.com/3d-models/geometric-bodies-aa6f11ed6b9a40239fe95080ecf34903",
      "title": "Geometric Bodies"
    },
    "generator": "Sketchfab-8.87.0",
    "version": "2.0"
  },
  "bufferViews": [
    {
      "buffer": 0,
      "byteLength": 1119216,
      "byteOffset": 0,
      "name": "floatBufferViews",
      "target": 34963
    },
    {
      "buffer": 0,
      "byteLength": 379032,
      "byteOffset": 1119216,
      "byteStride": 8,
      "name": "floatBufferViews",
      "target": 34962
    },
    {
      "buffer": 0,
      "byteLength": 1137096,
      "byteOffset": 1498248,
      "byteStride": 12,
      "name": "floatBufferViews",
      "target": 34962
    }
  ],
  "buffers": [
    {
      "byteLength": 2635344,
      "uri": "scene.bin"
    }
  ],
  "materials": [
    {
      "doubleSided": true,
      "emissiveFactor": [
        0,
        0,
        0
      ],
      "name": "Material_5",
      "pbrMetallicRoughness": {
        "baseColorFactor": [
          0.12256760431052603,
          0.11778542796578216,
          0.10617335799744802,
          1
        ],
        "metallicFactor": 0.098992819315494113,
        "roughnessFactor": 0.79213255993530696
      }
    },
    {
      "doubleSided": true,
      "emissiveFactor": [
        0,
        0,
        0
      ],
      "name": "Material_4",
      "pbrMetallicRoughness": {
        "baseColorFactor": [
          0.89282932489176869,
          0.89282932489176869,
          0.89282932489176869,
          1
        ],
        "metallicFactor": 0.068591953498835651,
        "roughnessFactor": 0.6462084040153464
      }
    }
  ],
  "meshes": [
    {
      "name": "Pattern2D_3757_Material #5_0",
      "primitives": [
        {
          "attributes": {
            "NORMAL": 1,
            "POSITION": 0,
            "TEXCOORD_0": 2
          },
          "indices": 3,
          "material": 0,
          "mode": 4
        }
      ]
    },
    {
      "name": "Box001_Material #4_0",
      "primitives": [
        {
          "attributes": {
            "NORMAL": 5,
            "POSITION": 4,
            "TEXCOORD_0": 6
          },
          "indices": 7,
          "material": 1,
          "mode": 4
        }
      ]
    },
    {
      "name": "GeoSphere001_Material #4_0",
      "primitives": [
        {
          "attributes": {
            "NORMAL": 9,
            "POSITION": 8,
            "TEXCOORD_0": 10
          },
          "indices": 11,
          "material": 1,
          "mode": 4
        }
      ]
    },
    {
      "name": "Cone001_Material #4_0",
      "primitives": [
        {
          "attributes": {
            "NORMAL": 13,
            "POSITION": 12,
            "TEXCOORD_0": 14
          },
          "indices": 15,
          "material": 1,
          "mode": 4
        }
      ]
    },
    {
      "name": "Cylinder001_Material #4_0",
      "primitives": [
        {
          "attributes": {
            "NORMAL": 17,
            "POSITION": 16,
            "TEXCOORD_0": 18
          },
          "indices": 19,
          "material": 1,
          "mode": 4
        }
      ]
    }
  ],
  "nodes": [
    {
      "children": [
        1
      ],
      "name": "RootNode (gltf orientation matrix)",
      "rotation": [
        -0.70710678118654746,
        -0,
        -0,
        0.70710678118654757
      ]
    },
    {
      "children": [
        2
      ],
      "name": "RootNode (model correction matrix)"
    },
    {
      "children": [
        3
      ],
      "matrix": [
        1,
        0,
        0,
        0,
        0,
        0,
        1,
        0,
        0,
        -1,
        0,
        0,
        0,
        0,
        0,
        1
      ],
      "name": "1cde93f92db74c63a471d6c9dbbc6161.fbx"
    },
    {
      "children": [
        4,
        6,
        8,
        10,
        12
      ],
      "name": "RootNode"
    },
    {
      "children": [
        5
      ],
      "matrix": [
        10,
        0,
        0,
        0,
        0,
        2.2204460492503131e-15,
        -10,
        0,
        0,
        10,
        2.2204460492503131e-15,
        0,
        5.0960870794369839e-06,
        5.0960870794369839e-06,
        -116.58488464355469,
        1
      ],
      "name": "Pattern2D_3757"
    },
    {
      "mesh": 0,
      "name": "Pattern2D_3757_Material #5_0"
    },
    {
      "children": [
        7
      ],
      "matrix": [
        9.3969261684931435,
        9.5367431679482806e-06,
        3.4202015414004201,
        0,
        3.420201541307792,
        -0.00010490417484021464,
        -9.3969261679461411,
        0,
        2.6917734906040103e-05,
        9.9999999994452082,
        -0.00010183943694341835,
        0,
        -115.51580810546875,
        366.0843505859375,
        137.96235656738281,
        1
      ],
      "name": "Box001"
    },
    {
      "mesh": 1,
      "name": "Box001_Material #4_0"
    },
    {
      "children": [
        9
      ],
      "matrix": [
        9.9999999999954525,
        9.5367431640581649e-06,
        0,
        0,
        1.0004441718972815e-10,
        -0.00010490417480024661,
        -9.9999999994497575,
        0,
        -9.536743163533411e-06,
        9.99999999944521,
        -0.00010490417480024661,
        0,
        -110.04444885253906,
        493.3514404296875,
        118.07453918457031,
        1
      ],
      "name": "GeoSphere001"
    },
    {
      "mesh": 2,
      "name": "GeoSphere001_Material #4_0"
    },
    {
      "children": [
        11
      ],
      "matrix": [
        9.9999999994559055,
        -0.00010431635927830884,
        8.4703294725430034e-21,
        0,
        1.3859906506075951e-10,
        1.3286417011038054e-05,
        -9.9999999999911733,
        0,
        0.00010431635927821675,
        9.999999999447077,
        1.3286417012148277e-05,
        0,
        15.322847366333008,
        366.08425903320312,
        246.02328491210938,
        1
      ],
      "name": "Cone001"
    },
    {
      "mesh": 3,
      "name": "Cone001_Material #4_0"
    },
    {
      "children": [
        13
      ],
      "matrix": [
        6.751218278977511e-05,
        9.9999999997721059,
        1.6653345369377348e-15,
        0,
        -8.1915611983991923,
        5.5303017696406442e-05,
        5.7357061579043922,
        0,
        5.735706157773679,
        -3.8723004257557037e-05,
        8.1915611985858732,
        0,
        33.097023010253906,
        428.76254272460938,
        45.326728820800781,
        1
      ],
      "name": "Cylinder001"
    },
    {
      "mesh": 4,
      "name": "Cylinder001_Material #4_0"
    }
  ],
  "scene": 0,
  "scenes": [
    {
      "name": "OSG_Scene",
      "nodes": [
        0
      ]
    }
  ]
}

