{
  "accessors": [
    {
      "bufferView": 2,
      "componentType": 5126,
      "count": 138,
      "max": [
        0.94246006011962891,
        0.11168233305215836,
        0.65005981922149658
      ],
      "min": [
        -0.94246006011962891,
        -0.064873188734054565,
        -0.65016448497772217
      ],
      "type": "VEC3"
    },
    {
      "bufferView": 2,
      "byteOffset": 1656,
      "componentType": 5126,
      "count": 138,
      "max": [
        0.99518483877182007,
        0.99942475557327271,
        1
      ],
      "min": [
        -0.99518477916717529,
        -1,
        -1
      ],
      "type": "VEC3"
    },
    {
      "bufferView": 1,
      "componentType": 5126,
      "count": 138,
      "max": [
        0.99139535427093506,
        0.98867517709732056
      ],
      "min": [
        0.26486331224441528,
        0.011523422785103321
      ],
      "type": "VEC2"
    },
    {
      "bufferView": 0,
      "componentType": 5125,
      "count": 504,
      "max": [
        137
      ],
      "min": [
        0
      ],
      "type": "SCALAR"
    },
    {
      "bufferView": 2,
      "byteOffset": 3312,
      "componentType": 5126,
      "count": 400,
      "max": [
        0.27695563435554504,
        0.34016096591949463,
        0.83647811412811279
      ],
      "min": [
        -0.27695563435554504,
        -0.25486308336257935,
        -0.0018446333706378937
      ],
      "type": "VEC3"
    },
    {
      "bufferView": 2,
      "byteOffset": 8112,
      "componentType": 5126,
      "count": 400,
      "max": [
        1,
        0.99999076128005981,
        0.99999994039535522
      ],
      "min": [
        -1,
        -1,
        -0.99999994039535522
      ],
      "type": "VEC3"
    },
    {
      "bufferView": 1,
      "byteOffset": 1104,
      "componentType": 5126,
      "count": 400,
      "max": [
        0.90946990251541138,
        0.9514351487159729
      ],
      "min": [
        0.13426581025123596,
        0.037811785936355591
      ],
      "type": "VEC2"
    },
    {
      "bufferView": 0,
      "byteOffset": 2016,
      "componentType": 5125,
      "count": 1260,
      "max": [
        399
      ],
      "min": [
        0
      ],
      "type": "SCALAR"
    },
    {
      "bufferView": 2,
      "byteOffset": 12912,
      "componentType": 5126,
      "count": 417,
      "max": [
        0.45235425233840942,
        0.23557642102241516,
        0.015402123332023621
      ],
      "min": [
        -0.45235425233840942,
        -0.17136707901954651,
        -0.020719015970826149
      ],
      "type": "VEC3"
    },
    {
      "bufferView": 2,
      "byteOffset": 17916,
      "componentType": 5126,
      "count": 417,
      "max": [
        1,
        0.99821865558624268,
        0.99994999170303345
      ],
      "min": [
        -1,
        -1,
        -1
      ],
      "type": "VEC3"
    },
    {
      "bufferView": 3,
      "componentType": 5126,
      "count": 417,
      "max": [
        1,
        1,
        0.65324515104293823,
        1
      ],
      "min": [
        -1,
        -1,
        -0.034110859036445618,
        1
      ],
      "type": "VEC4"
    },
    {
      "bufferView": 1,
      "byteOffset": 4304,
      "componentType": 5126,
      "count": 417,
      "max": [
        0.97884929180145264,
        0.98027867078781128
      ],
      "min": [
        0.027651533484458923,
        0.020899474620819092
      ],
      "type": "VEC2"
    },
    {
      "bufferView": 0,
      "byteOffset": 7056,
      "componentType": 5125,
      "count": 1944,
      "max": [
        416
      ],
      "min": [
        0
      ],
      "type": "SCALAR"
    },
    {
      "bufferView": 2,
      "byteOffset": 22920,
      "componentType": 5126,
      "count": 466,
      "max": [
        0.045354675501585007,
        0.092214018106460571,
        0.014492446556687355
      ],
      "min": [
        -0.045354720205068588,
        -0.092242509126663208,
        -0.013673185370862484
      ],
      "type": "VEC3"
    },
    {
      "bufferView": 2,
      "byteOffset": 28512,
      "componentType": 5126,
      "count": 466,
      "max": [
        1,
        0.99079841375350952,
        0.99999541044235229
      ],
      "min": [
        -1,
        -0.9907984733581543,
        -1
      ],
      "type": "VEC3"
    },
    {
      "bufferView": 1,
      "byteOffset": 7640,
      "componentType": 5126,
      "count": 466,
      "max": [
        0.97511279582977295,
        0.97250652313232422
      ],
      "min": [
        0.0085563361644744873,
        0.011444488540291786
      ],
      "type": "VEC2"
    },
    {
      "bufferView": 0,
      "byteOffset": 14832,
      "componentType": 5125,
      "count": 1692,
      "max": [
        465
      ],
      "min": [
        0
      ],
      "type": "SCALAR"
    }
  ],
  "asset": {
    "extras": {
      "author": "Agustín Hönnun (https://sketchfab.com/Agustin_Honnun)",
      "license": "CC-BY-4.0 (http://creativecommons.org/licenses/by/4.0/)",
      "source": "https://sketchfab.com/3d-models/imac-3d-model-free-agustin-honnun-e632ef53df614e30b9983089ff984fa4",
      "title": "iMac 3D Model | [FREE] | Agustin Honnun"
    },
    "generator": "Sketchfab-8.37.0",
    "version": "2.0"
  },
  "bufferViews": [
    {
      "buffer": 0,
      "byteLength": 21600,
      "byteOffset": 0,
      "name": "floatBufferViews",
      "target": 34963
    },
    {
      "buffer": 0,
      "byteLength": 11368,
      "byteOffset": 21600,
      "byteStride": 8,
      "name": "floatBufferViews",
      "target": 34962
    },
    {
      "buffer": 0,
      "byteLength": 34104,
      "byteOffset": 32968,
      "byteStride": 12,
      "name": "floatBufferViews",
      "target": 34962
    },
    {
      "buffer": 0,
      "byteLength": 6672,
      "byteOffset": 67072,
      "byteStride": 16,
      "name": "floatBufferViews",
      "target": 34962
    }
  ],
  "buffers": [
    {
      "byteLength": 73744,
      "uri": "scene.bin"
    }
  ],
  "images": [
    {
      "uri": "textures/iMac_baseColor.png"
    },
    {
      "uri": "textures/iMac_metallicRoughness.png"
    },
    {
      "uri": "textures/Base_baseColor.jpeg"
    },
    {
      "uri": "textures/Keyboard_baseColor.jpeg"
    },
    {
      "uri": "textures/Keyboard_metallicRoughness.png"
    },
    {
      "uri": "textures/Keyboard_normal.png"
    },
    {
      "uri": "textures/Mouse_baseColor.jpeg"
    }
  ],
  "materials": [
    {
      "doubleSided": true,
      "emissiveFactor": [
        0,
        0,
        0
      ],
      "name": "iMac",
      "pbrMetallicRoughness": {
        "baseColorFactor": [
          1,
          1,
          1,
          1
        ],
        "baseColorTexture": {
          "index": 0,
          "texCoord": 0
        },
        "metallicFactor": 1,
        "metallicRoughnessTexture": {
          "index": 1,
          "texCoord": 0
        },
        "roughnessFactor": 0.53676528707537596
      }
    },
    {
      "doubleSided": true,
      "emissiveFactor": [
        0,
        0,
        0
      ],
      "name": "Base",
      "pbrMetallicRoughness": {
        "baseColorFactor": [
          1,
          1,
          1,
          1
        ],
        "baseColorTexture": {
          "index": 2,
          "texCoord": 0
        },
        "metallicFactor": 0,
        "roughnessFactor": 0.11723333880548918
      }
    },
    {
      "doubleSided": true,
      "emissiveFactor": [
        0,
        0,
        0
      ],
      "name": "Keyboard",
      "normalTexture": {
        "index": 5,
        "scale": 0.67660926983200487,
        "texCoord": 0
      },
      "pbrMetallicRoughness": {
        "baseColorFactor": [
          1,
          1,
          1,
          1
        ],
        "baseColorTexture": {
          "index": 3,
          "texCoord": 0
        },
        "metallicFactor": 0.23275662890879134,
        "metallicRoughnessTexture": {
          "index": 4,
          "texCoord": 0
        },
        "roughnessFactor": 0.81645325258863377
      }
    },
    {
      "doubleSided": true,
      "emissiveFactor": [
        0,
        0,
        0
      ],
      "name": "Mouse",
      "pbrMetallicRoughness": {
        "baseColorFactor": [
          1,
          1,
          1,
          1
        ],
        "baseColorTexture": {
          "index": 6,
          "texCoord": 0
        },
        "metallicFactor": 0,
        "roughnessFactor": 0.1841152436021378
      }
    }
  ],
  "meshes": [
    {
      "name": "Display_iMac_0",
      "primitives": [
        {
          "attributes": {
            "NORMAL": 1,
            "POSITION": 0,
            "TEXCOORD_0": 2
          },
          "indices": 3,
          "material": 0,
          "mode": 4
        }
      ]
    },
    {
      "name": "Base_Base_0",
      "primitives": [
        {
          "attributes": {
            "NORMAL": 5,
            "POSITION": 4,
            "TEXCOORD_0": 6
          },
          "indices": 7,
          "material": 1,
          "mode": 4
        }
      ]
    },
    {
      "name": "Keyboard_Keyboard_0",
      "primitives": [
        {
          "attributes": {
            "NORMAL": 9,
            "POSITION": 8,
            "TANGENT": 10,
            "TEXCOORD_0": 11
          },
          "indices": 12,
          "material": 2,
          "mode": 4
        }
      ]
    },
    {
      "name": "Mouse.001_Mouse_0",
      "primitives": [
        {
          "attributes": {
            "NORMAL": 14,
            "POSITION": 13,
            "TEXCOORD_0": 15
          },
          "indices": 16,
          "material": 3,
          "mode": 4
        }
      ]
    }
  ],
  "nodes": [
    {
      "children": [
        1
      ],
      "name": "RootNode (gltf orientation matrix)",
      "rotation": [
        -0.70710678118654746,
        -0,
        -0,
        0.70710678118654757
      ]
    },
    {
      "children": [
        2
      ],
      "matrix": [
        0.0050498195923864841,
        0,
        0,
        0,
        0,
        0.0050498195923864841,
        0,
        0,
        0,
        0,
        0.0050498195923864841,
        0,
        0,
        0,
        0,
        1
      ],
      "name": "RootNode (model correction matrix)"
    },
    {
      "children": [
        3
      ],
      "matrix": [
        1,
        0,
        0,
        0,
        0,
        0,
        1,
        0,
        0,
        -1,
        0,
        0,
        0,
        0,
        0,
        1
      ],
      "name": "2da2326d0b3e4a7d9b49861455ee94a0.fbx"
    },
    {
      "children": [
        4,
        6,
        8,
        10
      ],
      "name": "RootNode"
    },
    {
      "children": [
        5
      ],
      "matrix": [
        -99.999999999998465,
        8.7422779804563893e-06,
        1.5099578831723132e-05,
        0,
        1.4280180168438622e-05,
        -8.7155675179723939,
        99.619462741778577,
        0,
        1.0025024343531763e-05,
        99.61946274177923,
        8.7155675179710297,
        0,
        2.684337854385376,
        83.159355163574219,
        64.775398254394531,
        1
      ],
      "name": "Display"
    },
    {
      "mesh": 0,
      "name": "Display_iMac_0"
    },
    {
      "children": [
        7
      ],
      "matrix": [
        -99.999999999998849,
        1.2246469849340659e-14,
        1.5099579909783702e-05,
        0,
        1.5099579909783661e-05,
        7.5497899931775692e-06,
        99.999999999998565,
        0,
        -1.1277401000787609e-12,
        99.999999999999702,
        -7.5497899709731087e-06,
        0,
        2.6843376159667969,
        -0.12458115816116333,
        67.889381408691406,
        1
      ],
      "name": "Base"
    },
    {
      "mesh": 1,
      "name": "Base_Base_0"
    },
    {
      "children": [
        9
      ],
      "matrix": [
        -99.999624937594504,
        -0.051162355813533164,
        -0.27188349110807392,
        0,
        -0.27235151602973445,
        0.93818657009612771,
        99.995220409440364,
        0,
        -0.048609132353937726,
        99.995578214714016,
        -0.93832232117438541,
        0,
        22.162937164306641,
        1.5659465789794922,
        -0.47661066055297852,
        1
      ],
      "name": "Keyboard"
    },
    {
      "mesh": 2,
      "name": "Keyboard_Keyboard_0"
    },
    {
      "children": [
        11
      ],
      "matrix": [
        99.972954554539541,
        -1.7347234759768071e-16,
        -2.3255875894002931,
        0,
        -2.3255875894002624,
        -1.6292067983592062e-05,
        -99.972954554538219,
        0,
        -3.7888631069377121e-07,
        99.999999999998678,
        -1.628766170824747e-05,
        0,
        -49.729290008544922,
        1.0549920797348022,
        2.4554252624511719,
        1
      ],
      "name": "Mouse.001"
    },
    {
      "mesh": 3,
      "name": "Mouse.001_Mouse_0"
    }
  ],
  "samplers": [
    {
      "magFilter": 9729,
      "minFilter": 9987,
      "wrapS": 10497,
      "wrapT": 10497
    }
  ],
  "scene": 0,
  "scenes": [
    {
      "name": "OSG_Scene",
      "nodes": [
        0
      ]
    }
  ],
  "textures": [
    {
      "sampler": 0,
      "source": 0
    },
    {
      "sampler": 0,
      "source": 1
    },
    {
      "sampler": 0,
      "source": 2
    },
    {
      "sampler": 0,
      "source": 3
    },
    {
      "sampler": 0,
      "source": 4
    },
    {
      "sampler": 0,
      "source": 5
    },
    {
      "sampler": 0,
      "source": 6
    }
  ]
}

